<?xml version="1.0" standalone="no"?>
<!DOCTYPE svg PUBLIC "-//W3C//DTD SVG 20010904//EN"
 "http://www.w3.org/TR/2001/REC-SVG-20010904/DTD/svg10.dtd">
<svg version="1.0" xmlns="http://www.w3.org/2000/svg"
 width="512.000000pt" height="512.000000pt" viewBox="0 0 512.000000 512.000000"
 preserveAspectRatio="xMidYMid meet">

<g transform="translate(0.000000,512.000000) scale(0.100000,-0.100000)"
fill="#000000" stroke="none">
<path d="M3340 4555 c-519 -71 -969 -396 -1201 -868 -33 -65 -48 -86 -59 -81
-147 56 -375 89 -569 81 -307 -14 -565 -98 -821 -268 -132 -87 -335 -291 -423
-424 -328 -497 -354 -1121 -67 -1639 69 -125 167 -255 198 -263 36 -9 75 9 91
41 16 35 11 48 -62 145 -110 147 -205 361 -249 564 -31 145 -31 418 0 559 29
132 65 234 124 353 74 148 139 237 268 365 171 171 343 279 560 350 157 51
247 65 440 65 193 0 283 -14 440 -65 217 -71 390 -179 561 -349 211 -212 337
-446 396 -738 27 -131 24 -414 -5 -545 -63 -288 -185 -511 -392 -718 -206
-207 -433 -329 -723 -392 -146 -31 -408 -31 -554 0 -202 44 -414 137 -562 248
-91 68 -120 76 -155 41 -54 -54 -31 -96 104 -189 487 -338 1132 -368 1654 -78
269 150 516 411 647 683 32 68 46 87 58 82 150 -58 366 -89 566 -81 309 12
570 96 825 267 115 77 290 244 376 359 454 608 408 1466 -108 2006 -101 105
-127 116 -173 69 -43 -42 -34 -66 60 -166 184 -197 297 -415 357 -687 31 -138
31 -424 0 -563 -125 -573 -559 -1001 -1129 -1116 -64 -13 -136 -18 -263 -18
-182 0 -277 13 -414 56 l-65 19 14 48 c37 128 49 228 49 412 1 152 -3 205 -22
297 -30 150 -81 294 -152 431 l-59 112 22 48 c18 40 22 65 22 167 0 118 -1
121 -39 205 -54 117 -54 183 0 302 48 107 59 213 25 247 -27 27 -82 28 -105 2
-10 -11 -21 -47 -26 -83 -4 -35 -22 -93 -40 -131 -59 -124 -57 -259 5 -397 29
-64 35 -90 35 -144 0 -36 -3 -66 -7 -65 -5 0 -32 28 -62 62 -112 127 -290 266
-433 338 -32 16 -58 33 -58 37 0 5 20 47 44 95 196 383 555 655 989 749 135
29 396 31 532 4 143 -28 271 -73 404 -142 68 -35 133 -64 146 -64 61 0 90 77
47 123 -29 31 -175 107 -287 151 -243 93 -520 126 -775 91z"/>
<path d="M3305 3930 c-10 -12 -22 -46 -27 -80 -4 -33 -19 -83 -33 -110 -68
-135 -71 -266 -8 -404 28 -60 38 -98 41 -147 4 -60 0 -76 -37 -162 -68 -160
-67 -261 5 -420 32 -71 36 -86 32 -146 -3 -46 -14 -88 -37 -141 -45 -99 -61
-192 -40 -228 21 -38 54 -53 90 -40 36 12 45 28 52 96 3 29 23 90 43 135 63
138 58 273 -14 412 -22 41 -27 64 -27 125 0 67 5 84 40 160 39 83 40 88 40
195 0 106 -1 113 -39 194 -45 98 -56 175 -33 236 8 22 27 69 43 105 16 40 29
91 32 131 4 58 2 69 -17 88 -27 27 -82 28 -106 1z"/>
<path d="M3786 3937 c-13 -9 -22 -33 -27 -72 -4 -31 -25 -96 -46 -144 -37 -83
-38 -90 -38 -196 0 -107 1 -112 40 -195 34 -74 40 -94 40 -155 0 -61 -6 -81
-40 -155 -39 -83 -40 -88 -40 -195 0 -107 1 -112 40 -195 36 -76 40 -93 39
-160 0 -60 -5 -85 -26 -125 -58 -113 -76 -237 -38 -275 52 -52 130 -9 130 72
0 25 14 71 36 120 67 150 68 267 2 410 -29 63 -33 83 -33 153 0 70 4 89 33
149 67 142 66 254 -3 411 -49 112 -49 178 1 288 20 44 41 111 47 148 10 64 9
72 -10 97 -23 31 -77 41 -107 19z"/>
<path d="M4257 3932 c-9 -10 -21 -47 -26 -83 -5 -35 -24 -95 -42 -133 -57
-121 -55 -255 5 -393 50 -113 50 -184 1 -294 -63 -138 -63 -269 -2 -405 48
-106 51 -192 11 -281 -44 -98 -54 -133 -55 -194 -2 -74 16 -99 71 -99 49 0 67
22 75 90 4 30 24 91 44 135 35 77 36 84 36 195 0 112 -1 117 -38 200 -54 119
-54 184 -1 301 38 82 39 86 39 204 0 118 -1 121 -38 203 -54 116 -54 183 -1
302 31 68 39 100 42 161 4 71 2 78 -19 93 -31 21 -82 20 -102 -2z"/>
<path d="M1354 3069 c-33 -12 -54 -49 -54 -92 0 -24 -14 -71 -36 -119 -67
-150 -68 -267 -2 -410 29 -63 33 -83 33 -153 0 -69 -4 -89 -32 -147 -67 -143
-68 -250 -1 -406 38 -89 40 -100 35 -166 -3 -52 -13 -89 -37 -138 -17 -38 -37
-100 -43 -138 -10 -65 -9 -73 10 -98 14 -18 31 -28 54 -30 51 -4 71 16 80 83
4 31 25 96 46 144 37 83 38 90 38 196 0 107 -1 112 -40 195 -34 74 -40 94 -40
155 0 61 6 81 40 155 39 83 40 88 40 195 0 108 -1 112 -40 195 -36 76 -40 93
-39 160 0 60 5 85 26 125 51 98 73 219 48 265 -13 23 -59 39 -86 29z"/>
<path d="M1822 3064 c-32 -13 -36 -21 -46 -101 -4 -23 -23 -80 -43 -125 -62
-140 -57 -275 15 -413 22 -41 27 -64 27 -125 0 -67 -5 -84 -40 -160 -39 -83
-40 -88 -40 -195 0 -106 1 -113 39 -194 45 -98 56 -175 33 -236 -8 -22 -27
-69 -43 -105 -16 -40 -29 -91 -32 -131 -4 -58 -2 -69 17 -88 52 -52 131 -9
131 72 0 24 14 70 35 116 70 155 72 266 7 405 -33 72 -37 90 -37 161 0 71 4
89 37 161 65 139 63 250 -7 405 -28 60 -35 89 -35 135 1 59 6 76 54 191 14 34
29 88 32 120 5 49 3 62 -15 84 -26 34 -50 40 -89 23z"/>
<path d="M847 3052 c-9 -9 -19 -42 -22 -72 -4 -30 -24 -91 -44 -135 -35 -77
-36 -84 -36 -195 0 -112 1 -117 38 -199 32 -71 38 -95 38 -152 0 -58 -5 -81
-38 -151 -37 -82 -38 -85 -38 -203 0 -118 1 -121 38 -203 33 -70 38 -93 38
-151 0 -57 -6 -82 -38 -152 -30 -67 -38 -99 -41 -160 -4 -71 -2 -78 19 -93 31
-21 82 -20 102 2 9 10 21 47 26 83 5 35 24 95 42 133 57 121 55 255 -5 393
-30 67 -36 93 -36 148 0 55 6 81 36 148 62 141 62 267 1 403 -48 106 -51 192
-11 281 44 98 54 133 55 194 1 44 -3 65 -16 79 -23 26 -86 27 -108 2z"/>
<path d="M2277 3052 c-9 -9 -19 -42 -22 -72 -4 -30 -24 -91 -44 -135 -35 -77
-36 -84 -36 -195 0 -112 1 -117 38 -200 55 -120 55 -183 1 -300 -38 -84 -39
-87 -39 -205 0 -118 1 -121 39 -205 53 -117 53 -180 0 -300 -29 -66 -39 -101
-42 -156 -4 -63 -1 -75 17 -93 26 -26 82 -28 104 -3 9 10 21 47 26 83 5 35 24
95 41 132 59 125 57 254 -5 395 -49 112 -49 184 0 292 64 141 64 268 1 407
-30 68 -36 91 -36 151 0 60 6 84 36 154 35 78 57 185 46 218 -17 50 -91 69
-125 32z"/>
</g>
</svg>
